<svg id="Layer_1" data-name="Layer 1" xmlns="http://www.w3.org/2000/svg" viewBox="0 0 370.64 79.41"><defs><style>.cls-1{fill:#201600;}.cls-2{fill:#517f4a;}</style></defs><title>logo_rus_goriz2_1</title><polygon class="cls-1" points="67.03 18.25 69.62 18.25 69.62 25.34 69.67 25.34 75.42 18.25 78.45 18.25 71.86 26.17 78.82 34.46 75.67 34.46 69.67 27.25 69.62 27.25 69.62 34.46 67.03 34.46 67.03 18.25"/><path class="cls-1" d="M102.93,54.05c-1.7,4.68-3.57,5.29-5.61,5.29a5.82,5.82,0,0,1-2.44-.49l0.64-2a3.86,3.86,0,0,0,1.7.42c1.38,0,2.49-.93,3.4-3.74L95.4,41.92h2.75l3.62,8.61h0l2.88-8.61h2.68Z" transform="translate(-15.89 -19.04)"/><path class="cls-1" d="M116.93,48c0-1.87-.62-3.59-2.68-3.59a6.42,6.42,0,0,0-3.08.94v0.93c0,3.71,1.11,5.41,3,5.41C116.24,51.66,117,50,117,48m-8.43-1.83c0-2.8.74-5.54,1.84-6.72,1.43-1.72,3.13-2,8.22-3.32v2.36c-4.48,1.2-5.78,1.45-6.54,2.53a5.45,5.45,0,0,0-.84,2.34h0a7.09,7.09,0,0,1,3.4-1c3.4,0,4.87,2.41,4.87,5.46,0,3.42-1.87,6-5.54,6-3.22,0-5.46-2.14-5.46-7.63" transform="translate(-15.89 -19.04)"/><path class="cls-1" d="M126.7,48a4.09,4.09,0,0,0-1.87.39,1.57,1.57,0,0,0-.81,1.48,1.72,1.72,0,0,0,1.64,1.8h0.25a3.87,3.87,0,0,0,2.53-1.11V48Zm1.92,4.28a4.81,4.81,0,0,1-3.39,1.43,3.57,3.57,0,0,1-3.79-3.34q0-.17,0-0.35a3.3,3.3,0,0,1,1.94-3.15,7.08,7.08,0,0,1,3-.61l2.09-.07V45.74a2,2,0,0,0-2.34-2.17,6.2,6.2,0,0,0-3.1.86l-0.89-1.7a8.71,8.71,0,0,1,4.38-1.16c2.88,0,4.5,1.33,4.5,4.16v4.48a14.27,14.27,0,0,0,.22,3.3h-2.19Z" transform="translate(-15.89 -19.04)"/><polygon class="cls-1" points="118.14 22.82 120.7 22.82 120.7 27.16 125.62 27.16 125.62 22.82 128.18 22.82 128.18 34.46 125.62 34.46 125.62 29.39 120.7 29.39 120.7 34.46 118.14 34.46 118.14 22.82"/><path class="cls-1" d="M146.54,47.77a5.94,5.94,0,0,1,5.67-6.19h0.33a6,6,0,0,1,3.08.76v2.19a4.9,4.9,0,0,0-2.83-.86c-2.26,0-3.64,1.72-3.64,4,0,2.53,1.38,4,3.49,4a5.44,5.44,0,0,0,2.76-.79l0.74,1.77a7,7,0,0,1-3.84,1.11c-3.71,0-5.78-2.63-5.78-6" transform="translate(-15.89 -19.04)"/><path class="cls-1" d="M158.08,41.87h2.56v4.72H162c1.53,0,1.5-2.53,2.44-4a2.32,2.32,0,0,1,2.07-1.06,4,4,0,0,1,1.08.15v2.19a1.83,1.83,0,0,0-.62-0.1,1,1,0,0,0-.84.42c-0.61.86-.69,2.7-1.77,3.34v0a2.42,2.42,0,0,1,1.38,1.48l2.14,4.41h-2.75l-1.6-3.79c-0.39-.83-0.74-1.16-1.08-1.16h-1.85v5h-2.56V41.87h0Z" transform="translate(-15.89 -19.04)"/><path class="cls-1" d="M169.94,41.87h2.51v5.66a18.5,18.5,0,0,1-.1,2.46h0c0.37-.61.89-1.43,1.58-2.44l4-5.68h2.46V53.51h-2.51V47.85a24.41,24.41,0,0,1,.1-2.46h-0.07c-0.35.59-.86,1.43-1.55,2.44l-4,5.68H169.9V41.87h0Z" transform="translate(-15.89 -19.04)"/><path class="cls-1" d="M184.83,36.24H187a1.87,1.87,0,1,0,3.72,0h2.14a3.64,3.64,0,0,1-4,3.94c-2.66,0-4.08-1.65-4-3.94m-1.33,5.63H186v5.66a18.5,18.5,0,0,1-.1,2.46h0c0.37-.61.89-1.43,1.58-2.44l4-5.68H194V53.51h-2.51V47.85a24.25,24.25,0,0,1,.1-2.46h-0.07c-0.34.59-.86,1.43-1.55,2.44l-4,5.68h-2.46V41.87h0Z" transform="translate(-15.89 -19.04)"/><polygon class="cls-1" points="186.58 22.82 194.75 22.82 193.99 25.09 189.14 25.09 189.14 34.46 186.58 34.46 186.58 22.82"/><path class="cls-1" d="M220.65,47.65c0-2.31-1.08-4-3-4s-3,1.67-3,4,1.11,4,3,4,3-1.67,3-4m-8.71,0c0-3.47,2.27-6.08,5.68-6.08s5.71,2.57,5.71,6.08-2.26,6.1-5.66,6.1S212,51.12,212,47.65" transform="translate(-15.89 -19.04)"/><path class="cls-1" d="M225.18,47.77a5.94,5.94,0,0,1,5.67-6.19h0.33a6.06,6.06,0,0,1,3.08.76v2.19a4.9,4.9,0,0,0-2.83-.86c-2.27,0-3.64,1.72-3.64,4,0,2.53,1.37,4,3.49,4a5.43,5.43,0,0,0,2.76-.79l0.74,1.77a7,7,0,0,1-3.83,1.11c-3.72,0-5.78-2.63-5.78-6" transform="translate(-15.89 -19.04)"/><path class="cls-1" d="M242.95,54.05c-1.7,4.68-3.57,5.29-5.61,5.29a5.82,5.82,0,0,1-2.44-.49l0.64-2a3.85,3.85,0,0,0,1.69.42c1.38,0,2.49-.93,3.4-3.74l-5.21-11.61h2.75l3.62,8.61h0l2.88-8.61h2.66Z" transform="translate(-15.89 -19.04)"/><path class="cls-1" d="M256.43,44h-2.3a19.23,19.23,0,0,1-2.46,7.38h4.77V44Zm-8.29,7.43h0.74c1.67-2.07,2.49-4.55,3.37-9.55H259v9.55h1.65v6.17h-2.38V53.51h-7.73v4.08h-2.38V51.42h0Z" transform="translate(-15.89 -19.04)"/><path class="cls-1" d="M267.66,48a4.1,4.1,0,0,0-1.87.39,1.57,1.57,0,0,0-.81,1.48,1.72,1.72,0,0,0,1.64,1.8h0.25a3.87,3.87,0,0,0,2.53-1.11V48Zm1.92,4.28a4.81,4.81,0,0,1-3.4,1.43,3.57,3.57,0,0,1-3.79-3.34q0-.17,0-0.35a3.3,3.3,0,0,1,1.94-3.15,7.07,7.07,0,0,1,3-.61l2.09-.07V45.74a2,2,0,0,0-2.34-2.17,6.18,6.18,0,0,0-3.1.86l-0.89-1.7a8.71,8.71,0,0,1,4.38-1.16c2.88,0,4.5,1.33,4.5,4.16v4.48a14.26,14.26,0,0,0,.22,3.3H270Z" transform="translate(-15.89 -19.04)"/><path class="cls-1" d="M279.2,51.61c2.31,0,3.52-1.57,3.52-4,0-2.68-1.48-3.91-3.66-3.91a5.25,5.25,0,0,0-1.55.22v7.31a3.81,3.81,0,0,0,1.7.37M275,42.3a12.78,12.78,0,0,1,4.21-.74c4,0,6.2,2.31,6.2,6.08a5.93,5.93,0,0,1-7.85,5.78v5.9H275v-17Z" transform="translate(-15.89 -19.04)"/><path class="cls-1" d="M287.25,47.77a5.94,5.94,0,0,1,5.67-6.19h0.33a6,6,0,0,1,3.08.76v2.19a4.88,4.88,0,0,0-2.83-.86c-2.26,0-3.64,1.72-3.64,4,0,2.53,1.38,4,3.5,4a5.43,5.43,0,0,0,2.76-.79l0.74,1.77A7,7,0,0,1,293,53.75c-3.71,0-5.78-2.63-5.78-6" transform="translate(-15.89 -19.04)"/><polygon class="cls-1" points="285.53 24.99 281.91 24.99 281.91 22.82 292.32 22.82 291.61 24.99 288.09 24.99 288.09 34.46 285.53 34.46 285.53 24.99"/><path class="cls-1" d="M314.78,51.64c1.4,0,2-.52,2-1.58s-0.67-1.57-1.92-1.57h-2.39v3.15h2.31Zm-0.12-4.9c1.23,0,1.87-.49,1.87-1.5s-0.52-1.5-2-1.5h-2v3h2.13Zm-4.6-4.87h4.43c3.47,0,4.58,1.62,4.58,3.12a2.5,2.5,0,0,1-2,2.51v0a2.66,2.66,0,0,1,2.21,2.59c0,1.62-1.13,3.32-4.65,3.32H310V41.87h0Z" transform="translate(-15.89 -19.04)"/><path class="cls-1" d="M328.73,46.5c0-1.48-.76-2.93-2.41-2.93s-2.46,1.35-2.48,2.93h4.89Zm-4.87,1.82a3.27,3.27,0,0,0,3.13,3.4h0.34a5.81,5.81,0,0,0,2.93-.79L331,52.68a7.39,7.39,0,0,1-4,1.08c-4.06,0-5.81-2.88-5.81-6.1,0-3.52,1.94-6.08,5.09-6.08s5,2.36,5,6.13v0.62h-7.44Z" transform="translate(-15.89 -19.04)"/><polygon class="cls-1" points="317.94 22.82 320.5 22.82 320.5 27.16 325.42 27.16 325.42 22.82 327.98 22.82 327.98 34.46 325.42 34.46 325.42 29.39 320.5 29.39 320.5 34.46 317.94 34.46 317.94 22.82"/><polygon class="cls-1" points="331.05 22.82 333.61 22.82 333.61 27.16 338.53 27.16 338.53 22.82 341.1 22.82 341.1 34.46 338.53 34.46 338.53 29.39 333.61 29.39 333.61 34.46 331.05 34.46 331.05 22.82"/><path class="cls-1" d="M370.42,41.87H373V53.51h-2.56V41.87Zm-6.6,9.64c2.09,0,2.49-.76,2.49-1.72s-0.49-1.7-2.49-1.7a10.45,10.45,0,0,0-1.2.08v3.35h1.2Zm-3.76-9.64h2.56v4.27a11.88,11.88,0,0,1,1.3-.08c3.71,0,5,1.72,5,3.67s-1.16,3.77-5,3.77H360V41.87h0Z" transform="translate(-15.89 -19.04)"/><path class="cls-1" d="M377.41,36.24h2.14a1.87,1.87,0,1,0,3.72,0h2.14a3.63,3.63,0,0,1-4,3.94c-2.66,0-4.08-1.65-4-3.94m-1.33,5.63h2.51v5.66a18.5,18.5,0,0,1-.1,2.46h0c0.37-.61.88-1.43,1.58-2.44l4-5.68h2.46V53.51H384V47.85a24.25,24.25,0,0,1,.1-2.46h-0.07c-0.34.59-.86,1.43-1.55,2.44l-4,5.68h-2.46V41.87h0Z" transform="translate(-15.89 -19.04)"/><path class="cls-1" d="M87.08,70.06a4.1,4.1,0,0,0-1.87.39,1.57,1.57,0,0,0-.81,1.47A1.72,1.72,0,0,0,86,73.73h0.26a3.87,3.87,0,0,0,2.53-1.11V70ZM89,74.34a4.81,4.81,0,0,1-3.4,1.43,3.57,3.57,0,0,1-3.79-3.34q0-.17,0-0.35a3.3,3.3,0,0,1,1.94-3.15,7.09,7.09,0,0,1,3-.61l2.09-.07V67.76a2,2,0,0,0-2.34-2.17,6.19,6.19,0,0,0-3.1.86l-0.89-1.7a8.72,8.72,0,0,1,4.38-1.16c2.88,0,4.5,1.33,4.5,4.16v4.48a14.16,14.16,0,0,0,.22,3.3H89.42Z" transform="translate(-15.89 -19.04)"/><polygon class="cls-1" points="78.53 44.84 86.69 44.84 85.93 47.11 81.08 47.11 81.08 56.48 78.53 56.48 78.53 44.84"/><path class="cls-1" d="M108.71,73.63c2.31,0,3.52-1.58,3.52-4,0-2.69-1.48-3.92-3.66-3.92a5.22,5.22,0,0,0-1.55.22v7.31a3.82,3.82,0,0,0,1.7.37m-4.26-9.3a12.75,12.75,0,0,1,4.21-.74c4,0,6.2,2.31,6.2,6.08a5.74,5.74,0,0,1-6,6.1,5.84,5.84,0,0,1-1.87-.32v5.9h-2.56v-17Z" transform="translate(-15.89 -19.04)"/><path class="cls-1" d="M122,70.06a4.11,4.11,0,0,0-1.87.39,1.57,1.57,0,0,0-.81,1.47,1.72,1.72,0,0,0,1.63,1.81h0.26a3.87,3.87,0,0,0,2.54-1.11V70Zm1.92,4.28a4.81,4.81,0,0,1-3.4,1.43,3.57,3.57,0,0,1-3.79-3.34q0-.17,0-0.35a3.3,3.3,0,0,1,1.94-3.15,7.1,7.1,0,0,1,3-.61l2.09-.07V67.76a2,2,0,0,0-2.34-2.17,6.2,6.2,0,0,0-3.1.86l-0.89-1.7a8.72,8.72,0,0,1,4.38-1.16c2.88,0,4.5,1.33,4.5,4.16v4.48a14.18,14.18,0,0,0,.22,3.3h-2.2Z" transform="translate(-15.89 -19.04)"/><path class="cls-1" d="M133.54,73.63c2.31,0,3.52-1.58,3.52-4,0-2.69-1.47-3.92-3.66-3.92a5.22,5.22,0,0,0-1.55.22v7.31a3.82,3.82,0,0,0,1.7.37m-4.26-9.3a12.76,12.76,0,0,1,4.21-.74c4,0,6.2,2.31,6.2,6.08a5.74,5.74,0,0,1-6,6.1,5.83,5.83,0,0,1-1.87-.32v5.9h-2.5v-17Z" transform="translate(-15.89 -19.04)"/><polygon class="cls-1" points="126.31 44.84 128.87 44.84 128.87 49.17 133.79 49.17 133.79 44.84 136.35 44.84 136.35 56.48 133.79 56.48 133.79 51.41 128.87 51.41 128.87 56.48 126.31 56.48 126.31 44.84"/><path class="cls-1" d="M165.68,63.89h2.56V75.53h-2.56V63.89Zm-6.59,9.65c2.09,0,2.48-.76,2.48-1.72s-0.49-1.7-2.48-1.7a10.25,10.25,0,0,0-1.21.08v3.35h1.21Zm-3.76-9.65h2.56v4.25a12.1,12.1,0,0,1,1.3-.08c3.71,0,4.95,1.72,4.95,3.67s-1.16,3.77-5,3.77h-3.81V63.89Z" transform="translate(-15.89 -19.04)"/><path class="cls-1" d="M172.67,58.25h2.14a1.87,1.87,0,1,0,3.71,0h2.14a3.63,3.63,0,0,1-4,3.93c-2.66,0-4.08-1.64-4-3.93m-1.33,5.64h2.51v5.66a18.5,18.5,0,0,1-.1,2.46h0c0.37-.61.89-1.43,1.57-2.44l4-5.68h2.46V75.53h-2.44V69.87a24.27,24.27,0,0,1,.1-2.46h-0.1c-0.34.59-.86,1.43-1.55,2.44l-4,5.69h-2.45V63.89Z" transform="translate(-15.89 -19.04)"/><path class="cls-1" d="M196.54,76.07c-1.7,4.68-3.57,5.29-5.61,5.29a5.81,5.81,0,0,1-2.44-.49l0.64-2a3.85,3.85,0,0,0,1.7.42c1.38,0,2.48-.93,3.39-3.74L189,63.94h2.75l3.62,8.61h0l2.88-8.61h2.66Z" transform="translate(-15.89 -19.04)"/><polygon class="cls-1" points="186.85 44.84 189.41 44.84 189.41 49.17 194.33 49.17 194.33 44.84 196.89 44.84 196.89 56.48 194.33 56.48 194.33 51.41 189.41 51.41 189.41 56.48 186.85 56.48 186.85 44.84"/><path class="cls-1" d="M215.86,63.89h2.47v5.66c0,0.93,0,1.75-.1,2.46h0c0.37-.61.89-1.43,1.58-2.44l4-5.68h2.52V75.53h-2.51V69.87a24,24,0,0,1,.1-2.46h-0.09c-0.35.59-.86,1.43-1.55,2.44l-4,5.69h-2.46V63.89h0Z" transform="translate(-15.89 -19.04)"/><path class="cls-1" d="M234.14,73.66c1.4,0,2-.52,2-1.58s-0.66-1.57-1.92-1.57h-2.39v3.15h2.31ZM234,68.76c1.23,0,1.87-.49,1.87-1.5s-0.51-1.5-2-1.5h-2v3H234Zm-4.6-4.87h4.43c3.47,0,4.58,1.63,4.58,3.13a2.5,2.5,0,0,1-2,2.51h0a2.66,2.66,0,0,1,2.24,2.63c0,1.62-1.13,3.32-4.65,3.32h-4.65V63.89h0Z" transform="translate(-15.89 -19.04)"/><path class="cls-1" d="M248.09,68.51c0-1.48-.76-2.93-2.41-2.93s-2.46,1.35-2.49,2.93h4.9Zm-4.87,1.82a3.28,3.28,0,0,0,3.15,3.4h0.32a5.82,5.82,0,0,0,2.93-.79l0.76,1.75a7.4,7.4,0,0,1-4,1.08c-4.06,0-5.81-2.88-5.81-6.1,0-3.52,2-6.08,5.09-6.08s5,2.36,5,6.13v0.62h-7.44Z" transform="translate(-15.89 -19.04)"/><path class="cls-1" d="M257.4,73.63c2.31,0,3.52-1.58,3.52-4,0-2.69-1.48-3.92-3.67-3.92a5.22,5.22,0,0,0-1.55.22v7.31a3.82,3.82,0,0,0,1.7.37m-4.26-9.3a12.77,12.77,0,0,1,4.21-.74c4,0,6.2,2.31,6.2,6.08a5.74,5.74,0,0,1-6,6.1,5.83,5.83,0,0,1-1.87-.32v5.9h-2.56v-17Z" transform="translate(-15.89 -19.04)"/><path class="cls-1" d="M265.45,69.79a5.94,5.94,0,0,1,5.67-6.19h0.33a6,6,0,0,1,3.08.76v2.19a4.89,4.89,0,0,0-2.83-.86c-2.26,0-3.64,1.72-3.64,4,0,2.53,1.38,4,3.5,4a5.44,5.44,0,0,0,2.76-.78l0.74,1.77a7,7,0,0,1-3.84,1.11c-3.71,0-5.78-2.63-5.78-6" transform="translate(-15.89 -19.04)"/><path class="cls-1" d="M277,63.89h2.51v5.66c0,0.93,0,1.75-.1,2.46h0c0.37-.61.89-1.43,1.58-2.44l4-5.68h2.46V75.53h-2.5V69.87a24.35,24.35,0,0,1,.1-2.46H285c-0.34.59-.86,1.43-1.55,2.44l-4,5.69H277V63.89h0Z" transform="translate(-15.89 -19.04)"/><polygon class="cls-1" points="277.29 47.01 273.67 47.01 273.67 44.84 284.08 44.84 283.36 47.01 279.85 47.01 279.85 56.48 277.29 56.48 277.29 47.01"/><path class="cls-1" d="M308.71,68.51c0-1.48-.76-2.93-2.41-2.93s-2.46,1.35-2.48,2.93h4.89Zm-4.87,1.82a3.27,3.27,0,0,0,3.13,3.4h0.34a5.83,5.83,0,0,0,2.93-.79L311,74.69a7.4,7.4,0,0,1-4,1.08c-4.06,0-5.81-2.88-5.81-6.1,0-3.52,1.94-6.08,5.09-6.08s5,2.36,5,6.13v0.62h-7.44Z" transform="translate(-15.89 -19.04)"/><polygon class="cls-1" points="300.54 47.01 296.92 47.01 296.92 44.84 307.33 44.84 306.62 47.01 303.1 47.01 303.1 56.48 300.54 56.48 300.54 47.01"/><path class="cls-2" d="M26.87,38.91L37.81,28l4.29,4.29L22.47,51.89a15.77,15.77,0,0,1-.13-2A15.37,15.37,0,0,1,26.87,39m23.81,2.36L29,63l-1.77-1.83-0.06,0-0.32-.31a16,16,0,0,1-2-2.38L46.53,36.73,48.7,38.9a15.44,15.44,0,0,1,1.93,2.36M48.71,60.77l-10.93,11-4.33-4.33L53.08,47.8a15.44,15.44,0,0,1-4.37,13m-26,4.88,15,15L53,65.39l0.92-.94h0a21.84,21.84,0,0,0,.15-29L37.69,19,22.27,34.46a21.81,21.81,0,0,0,0,30.83l0.42,0.4" transform="translate(-15.89 -19.04)"/><path class="cls-2" d="M59.18,63.75a21.65,21.65,0,0,1-5,9.55h0l-0.92.94L38,89.53l-15-15-0.41-.4a21.58,21.58,0,0,1-5.78-10.37H16.57a21.74,21.74,0,0,0,6,19.29L23,83.45l15,15L53.23,83.16l0.92-.94h0a21.81,21.81,0,0,0,5.23-18.47h-0.2Z" transform="translate(-15.89 -19.04)"/></svg>